<svg version="1.1" xmlns="http://www.w3.org/2000/svg" xmlns:xlink="http://www.w3.org/1999/xlink" width="208.92402" height="80.43983" viewBox="0,0,208.92402,80.43983"><g transform="translate(-131.37132,-143.18204)"><g data-paper-data="{&quot;isPaintingLayer&quot;:true}" fill-rule="nonzero" stroke-linecap="butt" stroke-linejoin="miter" stroke-miterlimit="10" stroke-dasharray="" stroke-dashoffset="0" style="mix-blend-mode: normal"><path d="M132.45175,188.71157c0,-8.45487 -2.02643,-22.81055 14.26376,-28.53143c17.761,-6.23741 56.69741,-6.13524 84.73624,-6.13524c22.30079,0 63.18322,0.13238 79.59596,4.27982c23.14993,5.84989 19.73738,19.71218 19.73738,30.05352c0,8.64349 -2.7569,23.48658 -19.69679,29.24471c-17.69663,6.01535 -50.5048,4.75529 -77.96988,4.75529c-35.04446,0 -72.76322,2.2444 -89.90239,-6.89109c-9.1511,-4.87771 -10.76427,-20.62393 -10.76427,-26.77558z" fill="#424242" stroke="#000000" stroke-width="2"/><path d="M140.78508,180.37824c0,-8.45487 -2.02643,-22.81055 14.26376,-28.53143c17.761,-6.23741 56.69741,-6.13524 84.73624,-6.13524c22.30079,0 63.18322,0.13238 79.59596,4.27982c23.14993,5.84989 19.73738,19.71218 19.73738,30.05352c0,8.64349 -2.7569,23.48658 -19.69679,29.24471c-17.69663,6.01535 -50.5048,4.75529 -77.96988,4.75529c-35.04446,0 -72.76322,2.2444 -89.90239,-6.89109c-9.1511,-4.87771 -10.76427,-20.62393 -10.76427,-26.77558z" fill="#ffffff" stroke="#000000" stroke-width="2"/><text transform="translate(175.03052,195.10208) scale(1.02004,1.02004)" font-size="40" xml:space="preserve" fill="#000000" fill-rule="nonzero" stroke="none" stroke-width="1" stroke-linecap="butt" stroke-linejoin="miter" stroke-miterlimit="10" stroke-dasharray="" stroke-dashoffset="0" font-family="Pixel" font-weight="normal" text-anchor="start" style="mix-blend-mode: normal"><tspan x="0" dy="0">Start</tspan></text></g></g></svg>