<svg version="1.1" xmlns="http://www.w3.org/2000/svg" xmlns:xlink="http://www.w3.org/1999/xlink" width="701.6997" height="244.86526" viewBox="0,0,701.6997,244.86526"><g transform="translate(120.62762,-255.01667)"><g data-paper-data="{&quot;isPaintingLayer&quot;:true}" fill-rule="nonzero" stroke-width="2" stroke-linecap="butt" stroke-linejoin="miter" stroke-miterlimit="10" stroke-dasharray="" stroke-dashoffset="0" style="mix-blend-mode: normal"><path d="M-119.62762,498.88193v-184.68468h699.6997v184.68468z" fill="#c3a6ff" stroke="#000000"/><path d="M137.08335,313.40244l23.66667,-52.48089l0.04805,0.55214l24.33333,51.92875z" fill="#ff0000" stroke="#ff0000"/><path d="M181.41668,313.95458l23.66666,-52.48089l0.04805,0.55215l24.33334,51.92875z" fill="#ff0000" stroke="#ff0000"/><path d="M162.08335,314.40244l23.66667,-52.48089l0.04805,0.55214l24.33333,51.92875z" fill="#ff0000" stroke="#ff0000"/><path d="M206.41668,314.95458l23.66666,-52.48089l0.04805,0.55215l24.33334,51.92875z" fill="#ff0000" stroke="#ff0000"/><path d="M294.08335,311.40244l23.66667,-52.48089l0.04805,0.55214l24.33333,51.92875z" fill="#ff0000" stroke="#ff0000"/><path d="M338.41668,311.95458l23.66666,-52.48089l0.04805,0.55215l24.33334,51.92875z" fill="#ff0000" stroke="#ff0000"/><path d="M319.08335,312.40244l23.66667,-52.48089l0.04805,0.55214l24.33333,51.92875z" fill="#ff0000" stroke="#ff0000"/><path d="M363.41668,312.95458l23.66666,-52.48089l0.04805,0.55215l24.33334,51.92875z" fill="#ff0000" stroke="#ff0000"/></g></g></svg>